HIERARCHY
ROOT hip
{
	OFFSET 0.000000 0.000000 0.000000 
	CHANNELS 6 Xposition Yposition Zposition Xrotation Yrotation Zrotation
	JOINT mSpine1
	{
		OFFSET 0.000000 3.310000 -0.000000 
		CHANNELS 3 Xrotation Yrotation Zrotation
		JOINT mSpine2
		{
			OFFSET 0.000000 -3.310000 0.000000 
			CHANNELS 3 Xrotation Yrotation Zrotation
			JOINT abdomen
			{
				OFFSET 0.000000 3.310000 -0.000000 
				CHANNELS 3 Xrotation Yrotation Zrotation
				JOINT mSpine3
				{
					OFFSET 0.000000 8.066000 -0.605000 
					CHANNELS 3 Xrotation Yrotation Zrotation
					JOINT mSpine4
					{
						OFFSET 0.000000 -8.066000 0.605000 
						CHANNELS 3 Xrotation Yrotation Zrotation
						JOINT chest
						{
							OFFSET 0.000000 8.066000 -0.605000 
							CHANNELS 3 Xrotation Yrotation Zrotation
							JOINT neck
							{
								OFFSET 0.000000 9.886100 -0.370500 
								CHANNELS 3 Xrotation Yrotation Zrotation
								End Site
								{
									OFFSET 0.000000 2.977600 -0.000000 
								}
							}
							JOINT lCollar
							{
								OFFSET 2.822000 6.511600 -0.815700 
								CHANNELS 3 Xrotation Yrotation Zrotation
								JOINT lShldr
								{
									OFFSET 3.110200 0.000000 0.000000 
									CHANNELS 3 Xrotation Yrotation Zrotation
									JOINT lForeArm
									{
										OFFSET 10.935400 0.000000 0.000000 
										CHANNELS 3 Xrotation Yrotation Zrotation
										JOINT lHand
										{
											OFFSET 9.516500 0.000000 0.000000 
											CHANNELS 3 Xrotation Yrotation Zrotation
											End Site
											{
												OFFSET 2.362200 0.000000 0.000000 
											}
										}
									}
								}
							}
							JOINT rCollar
							{
								OFFSET -2.834600 6.511600 -0.815700 
								CHANNELS 3 Xrotation Yrotation Zrotation
								JOINT rShldr
								{
									OFFSET -3.126700 0.000000 0.000000 
									CHANNELS 3 Xrotation Yrotation Zrotation
									JOINT rForeArm
									{
										OFFSET -10.935400 0.000000 0.000000 
										CHANNELS 3 Xrotation Yrotation Zrotation
										JOINT rHand
										{
											OFFSET -9.523600 0.000000 0.000000 
											CHANNELS 3 Xrotation Yrotation Zrotation
											End Site
											{
												OFFSET -2.362200 0.000000 0.000000 
											}
										}
									}
								}
							}
						}
					}
				}
			}
		}
	}
	JOINT rThigh
	{
		OFFSET -5.071100 -1.617600 1.323600 
		CHANNELS 3 Xrotation Yrotation Zrotation
		JOINT rShin
		{
			OFFSET 1.914800 -19.327600 -0.030700 
			CHANNELS 3 Xrotation Yrotation Zrotation
			JOINT rFoot
			{
				OFFSET 0.000000 -18.444599 -1.136600 
				CHANNELS 3 Xrotation Yrotation Zrotation
				End Site
				{
					OFFSET 0.000000 -2.387300 4.407700 
				}
			}
		}
	}
	JOINT lThigh
	{
		OFFSET 4.990700 -1.614100 1.329000 
		CHANNELS 3 Xrotation Yrotation Zrotation
		JOINT lShin
		{
			OFFSET -1.794000 -19.332800 -0.034900 
			CHANNELS 3 Xrotation Yrotation Zrotation
			JOINT lFoot
			{
				OFFSET 0.054300 -18.442801 -1.137300 
				CHANNELS 3 Xrotation Yrotation Zrotation
				End Site
				{
					OFFSET 0.000000 -2.386600 4.407700 
				}
			}
		}
	}
}
MOTION
Frames: 2
Frame Time: 0.041667
0.000000 41.777100 0.000000 0.000000 0.000000 0.000000 0.000000 0.000000 0.000000 0.000000 0.000000 0.000000 0.000000 0.000000 0.000000 0.000000 0.000000 0.000000 0.000000 0.000000 0.000000 0.000000 0.000000 0.000000 0.000000 0.000000 0.000000 0.000000 0.000000 0.000000 0.000000 0.000000 0.000000 0.000000 0.000000 0.000000 0.000000 0.000000 0.000000 0.000000 0.000000 0.000000 0.000000 0.000000 0.000000 0.000000 0.000000 0.000000 0.000000 0.000000 0.000000 0.000000 0.000000 0.000000 0.000000 0.000000 0.000000 0.000000 0.000000 0.000000 0.000000 0.000000 0.000000 0.000000 0.000000 0.000000 0.000000 0.000000 0.000000 
0.000000 41.535801 -1.246300 62.420101 0.000000 0.000000 0.000000 0.000000 0.000000 0.000000 0.000000 0.000000 -5.342400 0.000000 0.000000 0.000000 0.000000 0.000000 0.000000 0.000000 0.000000 -10.687300 0.000000 0.000000 -16.196899 0.000000 0.000000 31.117701 0.000000 0.000000 15.000000 -47.268600 -74.000000 17.046700 -81.321602 -21.098700 -1.828600 11.644700 4.539300 31.117800 0.000000 0.000000 15.000000 25.856604 72.449303 31.298700 106.130302 14.713200 1.339400 13.253300 -28.006599 -74.144302 7.858200 -20.000000 19.606400 4.387100 -1.263200 -8.061500 -2.019100 14.498600 -72.420502 -11.564700 20.000000 19.226101 -5.127300 1.501500 -8.371900 2.476800 -21.440701 
